# xmcd
# 
# Track frame offsets:
#   150
#   18252
#   34172
#   51757
#   72075
#   95540
#   112252
#   125097
#   139840
#   155155
#   172882
#   185932
#   201910
#   219065
# 
# Disc length: 3172 seconds
# 
# Revision: 3
# Processed by: cddbd v1.5.2PL0 Copyright (c) Steve Scherf et al.
# Submitted via: Synapstar 1.0 
# 
DISCID=d00c620e
DTITLE=Various Artist - Country Hits - Today - P049
DYEAR=2002
DGENRE=Country
TTITLE0=Garth Brooks - Two Pin Coladas
TTITLE1=Reba McEntire - Whoever's in New England
TTITLE2=John Michael Montgomery - Love Working On You
TTITLE3=LeAnn Rimes - Commitment
TTITLE4=Steve Wariner - Holes in the Floor of Heaven
TTITLE5=Lila McCann - Almost Over You
TTITLE6=Randy Travis - Out of My Bones
TTITLE7=Mark Chesnutt - I Might Even Quit Lovin' You
TTITLE8=Mark Wills - I Do (Cherish You)
TTITLE9=Sammy Kershaw - Matches
TTITLE10=Sherrie Austin - Put Your Heart Into It
TTITLE11=John Anderson - Takin' the Country Back
TTITLE12=The Lynns - Woman to Woman
TTITLE13=Kevin Sharp - Love Is All That Really Matters
EXTD=
EXTT0=
EXTT1=
EXTT2=
EXTT3=
EXTT4=
EXTT5=
EXTT6=
EXTT7=
EXTT8=
EXTT9=
EXTT10=
EXTT11=
EXTT12=
EXTT13=
PLAYORDER=
